<?xml version="1.0" encoding="utf-8"?>
<!-- Generator: Adobe Illustrator 25.0.1, SVG Export Plug-In . SVG Version: 6.00 Build 0)  -->
<svg version="1.1" xmlns="http://www.w3.org/2000/svg" xmlns:xlink="http://www.w3.org/1999/xlink" x="0px" y="0px"
	 viewBox="0 0 200 200" style="enable-background:new 0 0 200 200;" xml:space="preserve">
<style type="text/css">
	.st0{fill:#666666;}
	.st1{fill:#F2F2F2;}
	.st2{fill:#E5E5E5;}
	.st3{fill:none;stroke:#FFFFFF;stroke-width:2;stroke-miterlimit:10;}
	.st4{fill:#FFC37F;}
	.st5{fill:none;}
	.st6{fill:url(#SVGID_1_);}
	.st7{fill:url(#SVGID_2_);}
	.st8{opacity:0.47;}
	.st9{fill:none;stroke:#B3B3B3;stroke-width:3;stroke-linecap:round;stroke-linejoin:round;stroke-miterlimit:10;}
	.st10{fill:none;stroke:#B3B3B3;stroke-width:4;stroke-miterlimit:10;}
	.st11{fill:none;stroke:#B3B3B3;stroke-miterlimit:10;}
</style>
<g id="Background">
	<rect class="st0" width="200" height="200"/>
</g>
<g id="Logo_Art">
	<g>
		<g id="Bag">
			<path class="st1" d="M84.52,138.15l-24.64,7.28c-8.58,2.54-17.59-2.36-20.13-10.94l-7.04-23.81c-0.42-1.43,0.39-2.93,1.82-3.35
				l50.53-14.94c1.43-0.42,2.93,0.39,3.35,1.82l7.04,23.81C98,126.6,93.1,135.61,84.52,138.15z"/>
			<path class="st2" d="M80.82,93.64L80.82,93.64z"/>
			<path class="st2" d="M50.44,55.35"/>
			<path class="st2" d="M38.78,106.07L38.78,106.07z"/>
			<path class="st3" d="M40.85,110.78c-1.37-6.53-1.99-7.63-4.32-13.89c-1.37-3.69-2.92-7.37-3.47-11.27
				c-0.56-3.9,0.01-8.15,2.47-11.17c1.36-1.67,3.2-2.85,5.05-3.94c3.27-1.92,6.67-3.63,10.16-5.09c3.71-1.56,7.75-2.87,11.72-2.13
				c4.35,0.81,7.99,4.03,10.37,7.82c2.38,3.79,3.68,8.15,4.96,12.44c2.11,7.1,2.55,8.48,4.66,15.58"/>
			
				<ellipse transform="matrix(0.959 -0.2835 0.2835 0.959 -31.7938 24.0147)" class="st2" cx="67.08" cy="121.87" rx="11.31" ry="11.49"/>
			<g id="S_1_">
				<path class="st4" d="M65.74,126.54c-0.06-0.05-0.13-0.09-0.2-0.12c-0.17-0.07-0.37-0.08-0.56-0.02
					c-0.53,0.16-0.78,0.78-0.5,1.27c0.08,0.14,0.17,0.28,0.27,0.41c-0.2-0.22-0.38-0.47-0.54-0.74c-0.28-0.49-0.03-1.11,0.5-1.27
					c0.19-0.06,0.38-0.04,0.55,0.02c0.17,0.07,0.32,0.19,0.42,0.36C65.7,126.48,65.72,126.51,65.74,126.54z"/>
				<path class="st5" d="M68.43,117.2c-0.09-0.06-0.16-0.15-0.22-0.25c-0.04-0.06-0.07-0.12-0.11-0.18
					C68.22,116.9,68.33,117.04,68.43,117.2z"/>
				<path class="st4" d="M70.8,124.86c0.3,1.3-0.42,2.64-1.65,3.1c-1.16,0.42-2.41-0.03-3.07-0.99c0.7,0.73,1.79,1.03,2.81,0.66
					c1.23-0.45,1.95-1.8,1.65-3.1c-0.08-0.35-0.23-0.67-0.42-0.94C70.44,123.92,70.68,124.36,70.8,124.86z"/>
				
					<linearGradient id="SVGID_1_" gradientUnits="userSpaceOnUse" x1="41.9969" y1="93.7799" x2="48.3526" y2="93.7799" gradientTransform="matrix(1.3388 -0.3957 0.402 1.3601 -31.0988 12.1937)">
					<stop  offset="0" style="stop-color:#FFF1BF"/>
					<stop  offset="1" style="stop-color:#FFC37F"/>
				</linearGradient>
				<path class="st6" d="M72.44,124.35c0.6,2.29-0.72,4.66-2.95,5.33c-1.8,0.54-3.67-0.16-4.74-1.6c0,0,0,0,0,0
					c-0.1-0.13-0.19-0.27-0.27-0.41c-0.28-0.49-0.04-1.11,0.5-1.27c0.19-0.06,0.38-0.04,0.56,0.02c0.07,0.03,0.14,0.07,0.2,0.12
					c0.1,0.15,0.21,0.3,0.33,0.43c0.67,0.96,1.91,1.41,3.07,0.99c1.24-0.45,1.95-1.8,1.65-3.1c-0.12-0.5-0.36-0.93-0.69-1.27
					c-0.64-0.92-1.8-1.37-2.91-1.04c-0.93,0.28-1.89,0.22-2.74-0.1c-0.65-0.25-1.25-0.65-1.72-1.18c-0.47-0.52-0.82-1.15-1.01-1.88
					c-0.59-2.29,0.72-4.66,2.95-5.32c1.8-0.54,3.67,0.16,4.74,1.6c0,0,0,0,0,0c0.1,0.13,0.19,0.27,0.27,0.41
					c0.28,0.49,0.03,1.11-0.5,1.27c-0.19,0.06-0.38,0.04-0.55-0.02c-0.07-0.03-0.14-0.07-0.21-0.12c-0.1-0.16-0.21-0.3-0.33-0.43
					c-0.67-0.96-1.91-1.42-3.08-0.99c-1.23,0.45-1.95,1.8-1.65,3.1c0.12,0.5,0.36,0.94,0.69,1.28c0.66,0.69,1.67,0.99,2.64,0.71
					c0.93-0.28,1.89-0.22,2.74,0.1c0.79,0.3,1.48,0.82,2,1.51C71.9,122.99,72.25,123.62,72.44,124.35z"/>
				<path class="st5" d="M66.07,126.96c-0.12-0.13-0.24-0.27-0.33-0.43c0.09,0.06,0.16,0.15,0.22,0.25
					C65.99,126.84,66.03,126.91,66.07,126.96z"/>
				<path class="st4" d="M68.1,116.77c-0.7-0.73-1.78-1.03-2.8-0.66c-1.24,0.45-1.95,1.8-1.65,3.1c0.08,0.35,0.23,0.67,0.42,0.95
					c-0.33-0.34-0.58-0.78-0.69-1.28c-0.3-1.3,0.42-2.65,1.65-3.1C66.19,115.36,67.43,115.81,68.1,116.77z"/>
				<path class="st4" d="M70.11,123.58c-0.66-0.69-1.42-1.06-2.39-0.86c-0.96,0.2-2.03,0.31-2.94,0.02
					c-0.8-0.26-1.54-0.79-2.05-1.48c0.48,0.53,1.07,0.93,1.72,1.18c0.85,0.32,1.8,0.38,2.74,0.1
					C68.31,122.21,69.47,122.66,70.11,123.58z"/>
				<path class="st4" d="M69.46,117.67c-0.19,0.05-0.38,0.04-0.55-0.02c-0.17-0.07-0.32-0.19-0.42-0.36
					c-0.02-0.03-0.03-0.06-0.05-0.08c0.06,0.05,0.13,0.09,0.21,0.12c0.17,0.07,0.37,0.08,0.55,0.02c0.53-0.16,0.78-0.78,0.5-1.27
					c-0.08-0.14-0.17-0.28-0.27-0.41c0.2,0.22,0.38,0.47,0.54,0.74C70.24,116.89,69.99,117.51,69.46,117.67z"/>
			</g>
		</g>
		<g id="S">
			<path class="st4" d="M90.8,116.4c-0.27-0.65-0.63-1.27-1.07-1.83c-1.05-1.31-2.53-2.29-4.24-2.72c-4.88-1.23-9.7,2.42-9.7,7.46
				c-0.01,1.47,0.07,2.94,0.23,4.38c-0.56-2.66-0.84-5.39-0.84-8.15c0.01-5.03,4.83-8.68,9.71-7.45c1.71,0.43,3.19,1.41,4.23,2.72
				c1.04,1.31,1.66,2.96,1.66,4.71C90.79,115.82,90.79,116.11,90.8,116.4z"/>
			<path class="st5" d="M154.74,57.05c-0.37-0.89-0.57-1.87-0.57-2.88c0.01-0.64-0.02-1.28-0.07-1.9
				C154.47,53.82,154.7,55.42,154.74,57.05z"/>
			<path class="st4" d="M138.1,126.7c-3.63,11.37-15.4,18.4-27.14,16.2c-11.05-2.07-18.71-11.24-19.51-21.7
				c2.13,8.83,9.22,16.13,18.91,17.94c11.73,2.19,23.51-4.84,27.14-16.21c0.98-3.07,1.31-6.16,1.07-9.16
				C139.58,117.87,139.5,122.32,138.1,126.7z"/>
			
				<linearGradient id="SVGID_2_" gradientUnits="userSpaceOnUse" x1="81.3635" y1="80.418" x2="161.9159" y2="80.418" gradientTransform="matrix(0.9697 0.2445 -0.2445 0.9697 24.4917 -20.9854)">
				<stop  offset="0" style="stop-color:#FFF1BF"/>
				<stop  offset="1" style="stop-color:#FFC37F"/>
			</linearGradient>
			<path class="st7" d="M153.3,130.34c-5.84,20.29-27.01,32.48-47.51,27.4c-16.52-4.11-28-18.04-29.76-34.01
				c-0.01-0.01,0-0.02-0.01-0.03c-0.16-1.44-0.24-2.91-0.23-4.38c0.01-5.04,4.82-8.69,9.7-7.46c1.71,0.43,3.19,1.41,4.24,2.72
				c0.44,0.56,0.8,1.17,1.07,1.83c0.05,1.63,0.27,3.24,0.65,4.8c0.8,10.46,8.46,19.63,19.51,21.7c11.74,2.2,23.51-4.83,27.14-16.2
				c1.4-4.37,1.47-8.82,0.48-12.93c-0.77-9.97-7.78-18.78-18.01-21.36c-8.57-2.16-15.78-6.96-20.96-13.33
				c-3.99-4.9-6.78-10.71-8.07-16.95c-1.27-6.1-1.13-12.6,0.73-19.04c5.85-20.28,27.03-32.46,47.51-27.36
				c16.52,4.11,28,18.06,29.75,34.04c0.01,0,0.01,0.01,0,0.02c0.16,1.44,0.24,2.9,0.24,4.36c-0.01,5.03-4.83,8.68-9.71,7.45
				c-1.71-0.43-3.19-1.41-4.23-2.72c-0.44-0.55-0.81-1.16-1.09-1.83c-0.04-1.63-0.27-3.23-0.64-4.79
				c-0.8-10.46-8.46-19.64-19.51-21.71c-11.73-2.19-23.51,4.84-27.14,16.21c-1.4,4.39-1.48,8.86-0.46,12.98
				c2.03,8.33,8.5,15.3,17.4,17.54c8.56,2.16,15.77,6.96,20.95,13.32c4.78,5.88,7.86,13.07,8.69,20.74
				C155.3,117.43,155.15,123.92,153.3,130.34z"/>
			<path class="st5" d="M91.45,121.2c-0.38-1.56-0.6-3.17-0.65-4.8c0.38,0.89,0.58,1.88,0.58,2.89
				C91.38,119.94,91.4,120.58,91.45,121.2z"/>
			<path class="st4" d="M154.1,52.26c-2.13-8.83-9.21-16.13-18.9-17.94c-11.74-2.2-23.51,4.83-27.14,16.21
				c-0.99,3.08-1.32,6.2-1.07,9.21c-1.02-4.12-0.94-8.59,0.46-12.98c3.64-11.37,15.41-18.4,27.14-16.21
				C145.64,32.62,153.3,41.8,154.1,52.26z"/>
			<path class="st4" d="M138.58,113.77c-2.02-8.36-6.25-14.68-14.73-17.51c-8.42-2.81-17.3-6.94-23.07-13.35
				c-5.07-5.62-8.41-13.13-9.24-20.78c1.3,6.23,4.09,12.05,8.07,16.95c5.18,6.36,12.39,11.17,20.96,13.33
				C130.8,94.99,137.81,103.8,138.58,113.77z"/>
			<path class="st4" d="M160.66,65.37c-1.71-0.43-3.18-1.41-4.23-2.72c-1.04-1.31-1.67-2.95-1.66-4.71c0-0.29-0.01-0.59-0.02-0.89
				c0.28,0.67,0.65,1.28,1.09,1.83c1.04,1.32,2.52,2.29,4.23,2.72c4.88,1.23,9.7-2.42,9.71-7.45c0-1.46-0.08-2.92-0.24-4.36
				c0.56,2.64,0.84,5.37,0.84,8.13C170.35,62.95,165.54,66.6,160.66,65.37z"/>
		</g>
		<g id="Cart" class="st8">
			<line class="st9" x1="23.77" y1="104.56" x2="52.94" y2="163.81"/>
			<line class="st9" x1="147.97" y1="163.35" x2="52.94" y2="163.81"/>
			<circle class="st10" cx="72.87" cy="175.33" r="10.1"/>
			<circle class="st10" cx="126.95" cy="175.33" r="10.1"/>
			<line class="st11" x1="23.77" y1="104.56" x2="163.24" y2="104.56"/>
			<line class="st9" x1="147.06" y1="163.36" x2="163.24" y2="104.56"/>
			<line class="st9" x1="164.38" y1="87.7" x2="156.63" y2="104.56"/>
			<line class="st9" x1="176.23" y1="88.38" x2="164.38" y2="87.7"/>
			<line class="st11" x1="38.36" y1="135.91" x2="154.61" y2="135.91"/>
			<line class="st11" x1="31.02" y1="119.28" x2="159.31" y2="119.28"/>
			<line class="st11" x1="46.37" y1="150.46" x2="150.62" y2="150.46"/>
			<line class="st11" x1="100.46" y1="104.56" x2="100.46" y2="163.58"/>
			<line class="st11" x1="64.57" y1="104.56" x2="77.55" y2="163.58"/>
			<line class="st11" x1="135.43" y1="104.56" x2="126.95" y2="163.46"/>
		</g>
	</g>
</g>
</svg>
